<svg width="1931" height="1688" viewBox="0 0 1931 1688" fill="none" xmlns="http://www.w3.org/2000/svg">
<path d="M1475 412C1475 398.739 1469.73 386.021 1460.36 376.645C1450.98 367.268 1438.26 362 1425 362C1411.74 362 1399.02 367.268 1389.64 376.645C1380.27 386.021 1375 398.739 1375 412L1425 412H1475Z" fill="#00B7C2"/>
<path d="M1725 412C1725 398.739 1719.73 386.021 1710.36 376.645C1700.98 367.268 1688.26 362 1675 362C1661.74 362 1649.02 367.268 1639.64 376.645C1630.27 386.021 1625 398.739 1625 412L1675 412H1725Z" fill="#D94141"/>
<path d="M1600 412C1600 398.739 1594.73 386.021 1585.36 376.645C1575.98 367.268 1563.26 362 1550 362C1536.74 362 1524.02 367.268 1514.64 376.645C1505.27 386.021 1500 398.739 1500 412L1550 412H1600Z" fill="#6BCB77"/>
<path d="M688 80L951 418" stroke="#C0C0C0" stroke-width="20" stroke-linecap="round"/>
<path d="M1101 225L951 418" stroke="#C0C0C0" stroke-width="20" stroke-linecap="round"/>
<circle cx="688" cy="80" r="80" fill="#F2A900"/>
<circle cx="1101.5" cy="225.5" r="32.5" fill="#C0C0C0"/>
<path d="M1051 418C1051 391.478 1040.46 366.043 1021.71 347.289C1002.96 328.536 977.522 318 951 318C924.478 318 899.043 328.536 880.289 347.289C861.536 366.043 851 391.478 851 418L951 418H1051Z" fill="#EAE3D2"/>
<rect y="388" width="1931" height="1300" rx="100" fill="#EAE3D2"/>
<circle cx="1650" cy="1155" r="50" fill="#D94141"/>
<circle cx="1550" cy="1255" r="50" fill="#F2A900"/>
<circle cx="1750" cy="1256" r="50" fill="#00B7C2"/>
<circle cx="1650" cy="1355" r="50" fill="#6BCB77"/>
<rect x="81" y="518" width="1300" height="1040" rx="100" fill="#3B3B3B"/>
<line x1="1482.5" y1="667.5" x2="1817.5" y2="667.5" stroke="#3B3B3B" stroke-width="15" stroke-linecap="round"/>
<line x1="1482.5" y1="847.5" x2="1817.5" y2="847.5" stroke="#3B3B3B" stroke-width="15" stroke-linecap="round"/>
<line x1="1482.5" y1="757.5" x2="1817.5" y2="757.5" stroke="#3B3B3B" stroke-width="15" stroke-linecap="round"/>
<path d="M601.511 1124.91C601.511 1147.92 597.357 1167.81 589.047 1184.57C580.737 1201.33 569.338 1214.26 554.849 1223.35C540.361 1232.44 523.813 1236.98 505.205 1236.98C486.597 1236.98 470.048 1232.44 455.56 1223.35C441.071 1214.26 429.672 1201.33 421.362 1184.57C413.053 1167.81 408.898 1147.92 408.898 1124.91C408.898 1101.9 413.053 1082.01 421.362 1065.25C429.672 1048.49 441.071 1035.56 455.56 1026.47C470.048 1017.38 486.597 1012.84 505.205 1012.84C523.813 1012.84 540.361 1017.38 554.849 1026.47C569.338 1035.56 580.737 1048.49 589.047 1065.25C597.357 1082.01 601.511 1101.9 601.511 1124.91ZM575.943 1124.91C575.943 1106.02 572.783 1090.07 566.462 1077.08C560.212 1064.08 551.724 1054.24 541 1047.57C530.347 1040.89 518.415 1037.55 505.205 1037.55C491.994 1037.55 480.027 1040.89 469.303 1047.57C458.649 1054.24 450.162 1064.08 443.841 1077.08C437.591 1090.07 434.466 1106.02 434.466 1124.91C434.466 1143.8 437.591 1159.75 443.841 1172.74C450.162 1185.74 458.649 1195.58 469.303 1202.25C480.027 1208.93 491.994 1212.27 505.205 1212.27C518.415 1212.27 530.347 1208.93 541 1202.25C551.724 1195.58 560.212 1185.74 566.462 1172.74C572.783 1159.75 575.943 1143.8 575.943 1124.91ZM839.828 1234V1257.44H703.464V1234H839.828ZM1134.42 1124.91C1134.42 1147.92 1130.27 1167.81 1121.96 1184.57C1113.65 1201.33 1102.25 1214.26 1087.76 1223.35C1073.27 1232.44 1056.72 1236.98 1038.11 1236.98C1019.51 1236.98 1002.96 1232.44 988.47 1223.35C973.981 1214.26 962.582 1201.33 954.272 1184.57C945.963 1167.81 941.808 1147.92 941.808 1124.91C941.808 1101.9 945.963 1082.01 954.272 1065.25C962.582 1048.49 973.981 1035.56 988.47 1026.47C1002.96 1017.38 1019.51 1012.84 1038.11 1012.84C1056.72 1012.84 1073.27 1017.38 1087.76 1026.47C1102.25 1035.56 1113.65 1048.49 1121.96 1065.25C1130.27 1082.01 1134.42 1101.9 1134.42 1124.91ZM1108.85 1124.91C1108.85 1106.02 1105.69 1090.07 1099.37 1077.08C1093.12 1064.08 1084.63 1054.24 1073.91 1047.57C1063.26 1040.89 1051.32 1037.55 1038.11 1037.55C1024.9 1037.55 1012.94 1040.89 1002.21 1047.57C991.559 1054.24 983.072 1064.08 976.751 1077.08C970.501 1090.07 967.376 1106.02 967.376 1124.91C967.376 1143.8 970.501 1159.75 976.751 1172.74C983.072 1185.74 991.559 1195.58 1002.21 1202.25C1012.94 1208.93 1024.9 1212.27 1038.11 1212.27C1051.32 1212.27 1063.26 1208.93 1073.91 1202.25C1084.63 1195.58 1093.12 1185.74 1099.37 1172.74C1105.69 1159.75 1108.85 1143.8 1108.85 1124.91Z" fill="white"/>
</svg>
